<mxfile host="app.diagrams.net" modified="2023-12-26T14:09:17.313Z" agent="Mozilla/5.0 (Macintosh; Intel Mac OS X 10_15_7) AppleWebKit/537.36 (KHTML, like Gecko) Chrome/120.0.0.0 Safari/537.36" etag="53AoXvtl33YMo2VZxkJB" version="22.1.11" type="device">
  <diagram name="Page-1" id="2MS_HTVRJ7BGoJ1P0p9R">
    <mxGraphModel dx="1306" dy="723" grid="1" gridSize="10" guides="1" tooltips="1" connect="1" arrows="1" fold="1" page="1" pageScale="1" pageWidth="850" pageHeight="1100" math="0" shadow="0">
      <root>
        <mxCell id="0" />
        <mxCell id="1" parent="0" />
        <mxCell id="0y2PuOgmpEa-RpFJCHIi-1" value="" style="rounded=0;whiteSpace=wrap;html=1;dashed=1;" vertex="1" parent="1">
          <mxGeometry x="190" y="30" width="330" height="130" as="geometry" />
        </mxCell>
        <mxCell id="0y2PuOgmpEa-RpFJCHIi-2" value="App Server" style="rounded=0;whiteSpace=wrap;html=1;strokeColor=#d79b00;fillColor=#ffe6cc;" vertex="1" parent="1">
          <mxGeometry x="220" y="55" width="120" height="60" as="geometry" />
        </mxCell>
        <mxCell id="0y2PuOgmpEa-RpFJCHIi-3" value="DB" style="shape=cylinder3;whiteSpace=wrap;html=1;boundedLbl=1;backgroundOutline=1;size=15;fillColor=#ffe6cc;strokeColor=#d79b00;" vertex="1" parent="1">
          <mxGeometry x="400" y="45" width="60" height="80" as="geometry" />
        </mxCell>
        <mxCell id="0y2PuOgmpEa-RpFJCHIi-4" value="" style="verticalLabelPosition=bottom;html=1;verticalAlign=top;align=center;strokeColor=none;fillColor=#00BEF2;shape=mxgraph.azure.laptop;pointerEvents=1;" vertex="1" parent="1">
          <mxGeometry x="30" y="70" width="50" height="30" as="geometry" />
        </mxCell>
        <mxCell id="0y2PuOgmpEa-RpFJCHIi-5" value="" style="endArrow=classic;html=1;rounded=0;exitX=0.92;exitY=0.5;exitDx=0;exitDy=0;exitPerimeter=0;" edge="1" parent="1" source="0y2PuOgmpEa-RpFJCHIi-4" target="0y2PuOgmpEa-RpFJCHIi-2">
          <mxGeometry width="50" height="50" relative="1" as="geometry">
            <mxPoint x="80" y="90" as="sourcePoint" />
            <mxPoint x="130" y="40" as="targetPoint" />
          </mxGeometry>
        </mxCell>
        <mxCell id="0y2PuOgmpEa-RpFJCHIi-6" value="Booking Service" style="rounded=0;whiteSpace=wrap;html=1;fillColor=#f5f5f5;fontColor=#333333;strokeColor=#666666;" vertex="1" parent="1">
          <mxGeometry x="370" y="190" width="120" height="60" as="geometry" />
        </mxCell>
        <mxCell id="0y2PuOgmpEa-RpFJCHIi-7" value="Orchestrator" style="rounded=0;whiteSpace=wrap;html=1;fillColor=#f5f5f5;fontColor=#333333;strokeColor=#666666;" vertex="1" parent="1">
          <mxGeometry x="370" y="300" width="120" height="60" as="geometry" />
        </mxCell>
        <mxCell id="0y2PuOgmpEa-RpFJCHIi-8" value="Search service" style="rounded=0;whiteSpace=wrap;html=1;fillColor=#f5f5f5;fontColor=#333333;strokeColor=#666666;" vertex="1" parent="1">
          <mxGeometry x="550" y="210" width="110" height="40" as="geometry" />
        </mxCell>
        <mxCell id="0y2PuOgmpEa-RpFJCHIi-9" value="Third Party Payment" style="rounded=0;whiteSpace=wrap;html=1;fillColor=#f5f5f5;fontColor=#333333;strokeColor=#666666;" vertex="1" parent="1">
          <mxGeometry x="550" y="280" width="110" height="40" as="geometry" />
        </mxCell>
        <mxCell id="0y2PuOgmpEa-RpFJCHIi-10" value="Cache" style="rounded=0;whiteSpace=wrap;html=1;fillColor=#f5f5f5;fontColor=#333333;strokeColor=#666666;" vertex="1" parent="1">
          <mxGeometry x="550" y="350" width="110" height="40" as="geometry" />
        </mxCell>
        <mxCell id="0y2PuOgmpEa-RpFJCHIi-11" value="HADOOP" style="rounded=0;whiteSpace=wrap;html=1;fillColor=#f5f5f5;fontColor=#333333;strokeColor=#666666;" vertex="1" parent="1">
          <mxGeometry x="550" y="410" width="110" height="40" as="geometry" />
        </mxCell>
        <mxCell id="0y2PuOgmpEa-RpFJCHIi-12" value="RDBMS" style="shape=cylinder3;whiteSpace=wrap;html=1;boundedLbl=1;backgroundOutline=1;size=15;fillColor=#e1d5e7;strokeColor=#9673a6;" vertex="1" parent="1">
          <mxGeometry x="720" y="280" width="60" height="60" as="geometry" />
        </mxCell>
        <mxCell id="0y2PuOgmpEa-RpFJCHIi-13" value="NoSql" style="shape=cylinder3;whiteSpace=wrap;html=1;boundedLbl=1;backgroundOutline=1;size=15;fillColor=#e1d5e7;strokeColor=#9673a6;" vertex="1" parent="1">
          <mxGeometry x="730" y="370" width="60" height="60" as="geometry" />
        </mxCell>
        <mxCell id="0y2PuOgmpEa-RpFJCHIi-14" value="Notification Service" style="rounded=0;whiteSpace=wrap;html=1;fillColor=#f5f5f5;fontColor=#333333;strokeColor=#666666;" vertex="1" parent="1">
          <mxGeometry x="370" y="450" width="120" height="60" as="geometry" />
        </mxCell>
        <mxCell id="0y2PuOgmpEa-RpFJCHIi-16" value="Elastic&lt;br&gt;search" style="shape=cylinder3;whiteSpace=wrap;html=1;boundedLbl=1;backgroundOutline=1;size=15;fillColor=#e1d5e7;strokeColor=#9673a6;" vertex="1" parent="1">
          <mxGeometry x="720" y="190" width="60" height="70" as="geometry" />
        </mxCell>
        <mxCell id="0y2PuOgmpEa-RpFJCHIi-17" value="" style="endArrow=classic;startArrow=classic;html=1;rounded=0;exitX=0;exitY=0;exitDx=0;exitDy=37.5;exitPerimeter=0;" edge="1" parent="1" source="0y2PuOgmpEa-RpFJCHIi-13">
          <mxGeometry width="50" height="50" relative="1" as="geometry">
            <mxPoint x="690" y="400" as="sourcePoint" />
            <mxPoint x="720" y="310" as="targetPoint" />
            <Array as="points">
              <mxPoint x="690" y="410" />
              <mxPoint x="690" y="310" />
            </Array>
          </mxGeometry>
        </mxCell>
        <mxCell id="0y2PuOgmpEa-RpFJCHIi-18" value="" style="endArrow=none;html=1;rounded=0;" edge="1" parent="1">
          <mxGeometry width="50" height="50" relative="1" as="geometry">
            <mxPoint x="660" y="370" as="sourcePoint" />
            <mxPoint x="690" y="370" as="targetPoint" />
          </mxGeometry>
        </mxCell>
        <mxCell id="0y2PuOgmpEa-RpFJCHIi-19" value="" style="html=1;verticalLabelPosition=bottom;align=center;labelBackgroundColor=#ffffff;verticalAlign=top;strokeWidth=2;strokeColor=#0080F0;shadow=0;dashed=0;shape=mxgraph.ios7.icons.smartphone;" vertex="1" parent="1">
          <mxGeometry x="46" y="260" width="18" height="30" as="geometry" />
        </mxCell>
        <mxCell id="0y2PuOgmpEa-RpFJCHIi-20" value="" style="verticalLabelPosition=bottom;html=1;verticalAlign=top;align=center;strokeColor=none;fillColor=#00BEF2;shape=mxgraph.azure.laptop;pointerEvents=1;" vertex="1" parent="1">
          <mxGeometry x="30" y="350" width="50" height="30" as="geometry" />
        </mxCell>
        <mxCell id="0y2PuOgmpEa-RpFJCHIi-21" value="LB" style="rounded=0;whiteSpace=wrap;html=1;fillColor=#dae8fc;strokeColor=#6c8ebf;" vertex="1" parent="1">
          <mxGeometry x="190" y="250" width="50" height="140" as="geometry" />
        </mxCell>
        <mxCell id="0y2PuOgmpEa-RpFJCHIi-22" value="" style="endArrow=classic;html=1;rounded=0;entryX=-0.02;entryY=0.2;entryDx=0;entryDy=0;entryPerimeter=0;" edge="1" parent="1" target="0y2PuOgmpEa-RpFJCHIi-21">
          <mxGeometry width="50" height="50" relative="1" as="geometry">
            <mxPoint x="60" y="278" as="sourcePoint" />
            <mxPoint x="130" y="230" as="targetPoint" />
          </mxGeometry>
        </mxCell>
        <mxCell id="0y2PuOgmpEa-RpFJCHIi-23" value="" style="endArrow=classic;html=1;rounded=0;entryX=-0.02;entryY=0.2;entryDx=0;entryDy=0;entryPerimeter=0;" edge="1" parent="1">
          <mxGeometry width="50" height="50" relative="1" as="geometry">
            <mxPoint x="80" y="362" as="sourcePoint" />
            <mxPoint x="189" y="360" as="targetPoint" />
          </mxGeometry>
        </mxCell>
        <mxCell id="0y2PuOgmpEa-RpFJCHIi-24" value="" style="endArrow=classic;html=1;rounded=0;entryX=0;entryY=0.5;entryDx=0;entryDy=0;" edge="1" parent="1" target="0y2PuOgmpEa-RpFJCHIi-7">
          <mxGeometry width="50" height="50" relative="1" as="geometry">
            <mxPoint x="240" y="330" as="sourcePoint" />
            <mxPoint x="290" y="280" as="targetPoint" />
          </mxGeometry>
        </mxCell>
        <mxCell id="0y2PuOgmpEa-RpFJCHIi-25" value="" style="endArrow=classic;startArrow=classic;html=1;rounded=0;entryX=0.433;entryY=1.033;entryDx=0;entryDy=0;entryPerimeter=0;" edge="1" parent="1" target="0y2PuOgmpEa-RpFJCHIi-6">
          <mxGeometry width="50" height="50" relative="1" as="geometry">
            <mxPoint x="420" y="300" as="sourcePoint" />
            <mxPoint x="470" y="250" as="targetPoint" />
          </mxGeometry>
        </mxCell>
        <mxCell id="0y2PuOgmpEa-RpFJCHIi-26" value="" style="endArrow=classic;html=1;rounded=0;" edge="1" parent="1" target="0y2PuOgmpEa-RpFJCHIi-14">
          <mxGeometry width="50" height="50" relative="1" as="geometry">
            <mxPoint x="430" y="360" as="sourcePoint" />
            <mxPoint x="480" y="310" as="targetPoint" />
          </mxGeometry>
        </mxCell>
        <mxCell id="0y2PuOgmpEa-RpFJCHIi-27" value="" style="endArrow=classic;html=1;rounded=0;exitX=1;exitY=0.5;exitDx=0;exitDy=0;" edge="1" parent="1" source="0y2PuOgmpEa-RpFJCHIi-7">
          <mxGeometry width="50" height="50" relative="1" as="geometry">
            <mxPoint x="500" y="280" as="sourcePoint" />
            <mxPoint x="550" y="230" as="targetPoint" />
          </mxGeometry>
        </mxCell>
        <mxCell id="0y2PuOgmpEa-RpFJCHIi-28" value="" style="endArrow=classic;html=1;rounded=0;exitX=1;exitY=0.5;exitDx=0;exitDy=0;entryX=0;entryY=0.5;entryDx=0;entryDy=0;" edge="1" parent="1" source="0y2PuOgmpEa-RpFJCHIi-7" target="0y2PuOgmpEa-RpFJCHIi-10">
          <mxGeometry width="50" height="50" relative="1" as="geometry">
            <mxPoint x="500" y="340" as="sourcePoint" />
            <mxPoint x="560" y="240" as="targetPoint" />
          </mxGeometry>
        </mxCell>
        <mxCell id="0y2PuOgmpEa-RpFJCHIi-29" value="" style="endArrow=classic;html=1;rounded=0;exitX=1;exitY=0.5;exitDx=0;exitDy=0;" edge="1" parent="1">
          <mxGeometry width="50" height="50" relative="1" as="geometry">
            <mxPoint x="490" y="330" as="sourcePoint" />
            <mxPoint x="550" y="230" as="targetPoint" />
          </mxGeometry>
        </mxCell>
        <mxCell id="0y2PuOgmpEa-RpFJCHIi-30" value="" style="endArrow=classic;html=1;rounded=0;entryX=0;entryY=0.75;entryDx=0;entryDy=0;" edge="1" parent="1" target="0y2PuOgmpEa-RpFJCHIi-9">
          <mxGeometry width="50" height="50" relative="1" as="geometry">
            <mxPoint x="490" y="330" as="sourcePoint" />
            <mxPoint x="540" y="280" as="targetPoint" />
          </mxGeometry>
        </mxCell>
        <mxCell id="0y2PuOgmpEa-RpFJCHIi-31" value="" style="endArrow=classic;html=1;rounded=0;entryX=0;entryY=0.5;entryDx=0;entryDy=0;" edge="1" parent="1" target="0y2PuOgmpEa-RpFJCHIi-11">
          <mxGeometry width="50" height="50" relative="1" as="geometry">
            <mxPoint x="460" y="360" as="sourcePoint" />
            <mxPoint x="510" y="310" as="targetPoint" />
            <Array as="points">
              <mxPoint x="460" y="430" />
            </Array>
          </mxGeometry>
        </mxCell>
        <mxCell id="0y2PuOgmpEa-RpFJCHIi-32" value="Cinemas&#39;s &lt;br&gt;System" style="text;html=1;align=center;verticalAlign=middle;resizable=0;points=[];autosize=1;strokeColor=none;fillColor=none;" vertex="1" parent="1">
          <mxGeometry x="520" y="33" width="80" height="40" as="geometry" />
        </mxCell>
        <mxCell id="0y2PuOgmpEa-RpFJCHIi-34" value="CDN" style="image;aspect=fixed;html=1;points=[];align=center;fontSize=12;image=img/lib/azure2/app_services/CDN_Profiles.svg;" vertex="1" parent="1">
          <mxGeometry x="100" y="450" width="68" height="40" as="geometry" />
        </mxCell>
        <mxCell id="0y2PuOgmpEa-RpFJCHIi-35" value="" style="endArrow=classic;startArrow=classic;html=1;rounded=0;entryX=0.5;entryY=1;entryDx=0;entryDy=0;entryPerimeter=0;" edge="1" parent="1" target="0y2PuOgmpEa-RpFJCHIi-3">
          <mxGeometry width="50" height="50" relative="1" as="geometry">
            <mxPoint x="427" y="190" as="sourcePoint" />
            <mxPoint x="427" y="160" as="targetPoint" />
          </mxGeometry>
        </mxCell>
        <mxCell id="0y2PuOgmpEa-RpFJCHIi-36" value="" style="endArrow=classic;html=1;rounded=0;entryX=0;entryY=0;entryDx=0;entryDy=45;entryPerimeter=0;exitX=1;exitY=0.5;exitDx=0;exitDy=0;" edge="1" parent="1" source="0y2PuOgmpEa-RpFJCHIi-8">
          <mxGeometry width="50" height="50" relative="1" as="geometry">
            <mxPoint x="660" y="226" as="sourcePoint" />
            <mxPoint x="720" y="231" as="targetPoint" />
          </mxGeometry>
        </mxCell>
      </root>
    </mxGraphModel>
  </diagram>
</mxfile>
